<svg width="16" height="17" viewBox="0 0 16 17" fill="none" xmlns="http://www.w3.org/2000/svg">
<g clip-path="url(#clip0_2128_790)">
<path d="M11.7713 12.0537L8.94266 14.8824C8.69265 15.1321 8.35371 15.2724 8.00033 15.2724C7.64694 15.2724 7.308 15.1321 7.05799 14.8824L4.22866 12.0537C3.48281 11.3078 2.97488 10.3575 2.76912 9.32293C2.56335 8.28837 2.66899 7.21603 3.07266 6.24151C3.47634 5.26699 4.15992 4.43405 5.03698 3.84803C5.91404 3.26201 6.94517 2.94922 7.99999 2.94922C9.05481 2.94922 10.0859 3.26201 10.963 3.84803C11.8401 4.43405 12.5236 5.26699 12.9273 6.24151C13.331 7.21603 13.4366 8.28837 13.2309 9.32293C13.0251 10.3575 12.5172 11.3078 11.7713 12.0537Z" fill="#9CA3AF" stroke="#9CA3AF" stroke-width="1.5" stroke-linecap="round" stroke-linejoin="round"/>
<path d="M8 10.2823C9.10457 10.2823 10 9.38692 10 8.28235C10 7.17778 9.10457 6.28235 8 6.28235C6.89543 6.28235 6 7.17778 6 8.28235C6 9.38692 6.89543 10.2823 8 10.2823Z" fill="white"/>
</g>
<defs>
<clipPath id="clip0_2128_790">
<rect width="16" height="16" fill="white" transform="translate(0 0.948975)"/>
</clipPath>
</defs>
</svg>
